<svg width="1281" height="635" viewBox="0 0 1281 635" fill="none" xmlns="http://www.w3.org/2000/svg">
<rect x="1" y="0.5" width="1279" height="633.642" rx="4.5" stroke="#9747FF" stroke-dasharray="10 5"/>
<path d="M40.5745 54.6485L29.3401 66.1362V82.2561H20.5V20H29.3401V54.8338L62.859 20H72.9883L46.6521 47.9782L74.83 82.2561H64.5165L40.5745 54.6485Z" fill="#FF6060"/>
<path d="M139.289 77.2534L142.789 70.5831C146.84 73.3624 153.102 75.4005 159.18 75.4005C167.099 75.4005 170.23 72.9918 170.23 68.9155C170.23 58.3542 140.578 67.4332 140.578 48.7193C140.578 40.1962 148.129 34.6376 160.1 34.6376C166.178 34.6376 173.176 36.3051 177.228 38.8992L173.545 45.5695C169.309 42.7902 164.705 41.8637 160.1 41.8637C152.734 41.8637 149.05 44.643 149.05 48.3487C149.05 59.4659 178.702 50.3869 178.702 68.7302C178.702 77.2534 170.966 82.6267 158.443 82.6267C150.892 82.812 143.157 80.4032 139.289 77.2534Z" fill="#FF6060"/>
<path d="M230.822 53.7221V82.2561H222.718V75.9564C219.956 80.218 214.615 82.6267 207.248 82.6267C196.566 82.6267 189.936 76.8828 189.936 68.7303C189.936 61.1335 194.724 55.0191 208.721 55.0191H222.166V53.3515C222.166 46.1254 217.93 42.0491 209.642 42.0491C204.117 42.0491 198.408 44.0872 194.724 47.0518L191.225 40.5668C196.014 36.6758 203.012 34.4523 210.563 34.4523C223.639 34.6376 230.822 40.9373 230.822 53.7221ZM222.35 67.8038V61.1335H209.274C200.802 61.1335 198.408 64.4687 198.408 68.3597C198.408 72.9918 202.275 75.9564 208.721 75.9564C215.167 76.1417 220.324 73.3624 222.35 67.8038Z" fill="#FF6060"/>
<path d="M112.032 69.8419V82.4414L117.373 79.2915V66.6921L112.032 69.8419Z" fill="#FF6060"/>
<path d="M126.766 54.4632L104.85 41.6784L92.6944 34.6376L80.7234 55.5749L80.9076 75.2152L102.64 88L104.85 86.703V68.1744L114.611 50.9428L124.556 56.6866V75.2152L126.766 73.9182V54.4632Z" fill="#FF6060"/>
<path d="M1011.68 58.8H1002.76L1000.91 63H998.437L1006.04 46.2H1008.42L1016.05 63H1013.53L1011.68 58.8ZM1010.84 56.88L1007.22 48.648L1003.6 56.88H1010.84ZM1023.65 63.144C1022.35 63.144 1021.19 62.864 1020.17 62.304C1019.16 61.744 1018.37 60.976 1017.79 60C1017.22 59.008 1016.93 57.888 1016.93 56.64C1016.93 55.392 1017.22 54.28 1017.79 53.304C1018.37 52.312 1019.16 51.544 1020.17 51C1021.19 50.44 1022.35 50.16 1023.65 50.16C1024.8 50.16 1025.83 50.392 1026.72 50.856C1027.63 51.32 1028.34 51.992 1028.83 52.872L1027.08 54C1026.68 53.392 1026.19 52.936 1025.59 52.632C1025 52.328 1024.35 52.176 1023.63 52.176C1022.79 52.176 1022.04 52.36 1021.37 52.728C1020.71 53.096 1020.19 53.624 1019.81 54.312C1019.44 54.984 1019.26 55.76 1019.26 56.64C1019.26 57.536 1019.44 58.328 1019.81 59.016C1020.19 59.688 1020.71 60.208 1021.37 60.576C1022.04 60.944 1022.79 61.128 1023.63 61.128C1024.35 61.128 1025 60.976 1025.59 60.672C1026.19 60.368 1026.68 59.912 1027.08 59.304L1028.83 60.408C1028.34 61.288 1027.63 61.968 1026.72 62.448C1025.83 62.912 1024.8 63.144 1023.65 63.144ZM1037.17 63.144C1035.88 63.144 1034.72 62.864 1033.69 62.304C1032.69 61.744 1031.89 60.976 1031.32 60C1030.74 59.008 1030.45 57.888 1030.45 56.64C1030.45 55.392 1030.74 54.28 1031.32 53.304C1031.89 52.312 1032.69 51.544 1033.69 51C1034.72 50.44 1035.88 50.16 1037.17 50.16C1038.33 50.16 1039.35 50.392 1040.25 50.856C1041.16 51.32 1041.86 51.992 1042.36 52.872L1040.61 54C1040.21 53.392 1039.71 52.936 1039.12 52.632C1038.53 52.328 1037.87 52.176 1037.15 52.176C1036.32 52.176 1035.57 52.36 1034.89 52.728C1034.24 53.096 1033.72 53.624 1033.33 54.312C1032.97 54.984 1032.78 55.76 1032.78 56.64C1032.78 57.536 1032.97 58.328 1033.33 59.016C1033.72 59.688 1034.24 60.208 1034.89 60.576C1035.57 60.944 1036.32 61.128 1037.15 61.128C1037.87 61.128 1038.53 60.976 1039.12 60.672C1039.71 60.368 1040.21 59.912 1040.61 59.304L1042.36 60.408C1041.86 61.288 1041.16 61.968 1040.25 62.448C1039.35 62.912 1038.33 63.144 1037.17 63.144ZM1057.2 50.28V63H1055.01V61.08C1054.55 61.736 1053.93 62.248 1053.16 62.616C1052.41 62.968 1051.59 63.144 1050.69 63.144C1049 63.144 1047.66 62.68 1046.68 61.752C1045.71 60.808 1045.22 59.424 1045.22 57.6V50.28H1047.52V57.336C1047.52 58.568 1047.82 59.504 1048.41 60.144C1049 60.768 1049.85 61.08 1050.96 61.08C1052.17 61.08 1053.13 60.712 1053.84 59.976C1054.54 59.24 1054.89 58.2 1054.89 56.856V50.28H1057.2ZM1073.08 56.712C1073.08 56.888 1073.06 57.12 1073.03 57.408H1062.71C1062.85 58.528 1063.34 59.432 1064.17 60.12C1065.02 60.792 1066.07 61.128 1067.32 61.128C1068.84 61.128 1070.06 60.616 1070.99 59.592L1072.26 61.08C1071.69 61.752 1070.97 62.264 1070.1 62.616C1069.25 62.968 1068.3 63.144 1067.25 63.144C1065.9 63.144 1064.71 62.872 1063.67 62.328C1062.63 61.768 1061.82 60.992 1061.25 60C1060.69 59.008 1060.41 57.888 1060.41 56.64C1060.41 55.408 1060.68 54.296 1061.22 53.304C1061.78 52.312 1062.54 51.544 1063.5 51C1064.48 50.44 1065.57 50.16 1066.79 50.16C1068.01 50.16 1069.09 50.44 1070.03 51C1070.99 51.544 1071.73 52.312 1072.26 53.304C1072.81 54.296 1073.08 55.432 1073.08 56.712ZM1066.79 52.104C1065.69 52.104 1064.76 52.44 1064.01 53.112C1063.27 53.784 1062.84 54.664 1062.71 55.752H1070.87C1070.74 54.68 1070.3 53.808 1069.55 53.136C1068.81 52.448 1067.89 52.104 1066.79 52.104ZM1076.28 50.28H1078.58V63H1076.28V50.28ZM1077.43 47.832C1076.98 47.832 1076.61 47.688 1076.3 47.4C1076.01 47.112 1075.87 46.76 1075.87 46.344C1075.87 45.928 1076.01 45.576 1076.3 45.288C1076.61 44.984 1076.98 44.832 1077.43 44.832C1077.88 44.832 1078.25 44.976 1078.53 45.264C1078.84 45.536 1078.99 45.88 1078.99 46.296C1078.99 46.728 1078.84 47.096 1078.53 47.4C1078.25 47.688 1077.88 47.832 1077.43 47.832ZM1082.98 45.192H1085.28V63H1082.98V45.192Z" fill="black"/>
<path d="M998.461 65.4H1087.49V66.6H998.461V65.4Z" fill="black"/>
<path d="M1164.41 58.8H1155.48L1153.64 63H1151.16L1158.77 46.2H1161.15L1168.78 63H1166.26L1164.41 58.8ZM1163.57 56.88L1159.95 48.648L1156.32 56.88H1163.57ZM1184.28 46.2C1186.46 46.2 1188.17 46.72 1189.42 47.76C1190.67 48.8 1191.29 50.232 1191.29 52.056C1191.29 53.88 1190.67 55.312 1189.42 56.352C1188.17 57.392 1186.46 57.912 1184.28 57.912H1180.13V63H1177.73V46.2H1184.28ZM1184.21 55.824C1185.73 55.824 1186.89 55.504 1187.69 54.864C1188.49 54.208 1188.89 53.272 1188.89 52.056C1188.89 50.84 1188.49 49.912 1187.69 49.272C1186.89 48.616 1185.73 48.288 1184.21 48.288H1180.13V55.824H1184.21ZM1196.48 52.416C1196.88 51.68 1197.47 51.12 1198.25 50.736C1199.04 50.352 1199.99 50.16 1201.11 50.16V52.392C1200.98 52.376 1200.81 52.368 1200.58 52.368C1199.33 52.368 1198.35 52.744 1197.63 53.496C1196.93 54.232 1196.57 55.288 1196.57 56.664V63H1194.27V50.28H1196.48V52.416ZM1209.28 63.144C1208.02 63.144 1206.88 62.864 1205.87 62.304C1204.86 61.744 1204.07 60.976 1203.5 60C1202.94 59.008 1202.66 57.888 1202.66 56.64C1202.66 55.392 1202.94 54.28 1203.5 53.304C1204.07 52.312 1204.86 51.544 1205.87 51C1206.88 50.44 1208.02 50.16 1209.28 50.16C1210.54 50.16 1211.67 50.44 1212.66 51C1213.67 51.544 1214.46 52.312 1215.02 53.304C1215.59 54.28 1215.88 55.392 1215.88 56.64C1215.88 57.888 1215.59 59.008 1215.02 60C1214.46 60.976 1213.67 61.744 1212.66 62.304C1211.67 62.864 1210.54 63.144 1209.28 63.144ZM1209.28 61.128C1210.1 61.128 1210.82 60.944 1211.46 60.576C1212.12 60.192 1212.63 59.664 1213 58.992C1213.37 58.304 1213.55 57.52 1213.55 56.64C1213.55 55.76 1213.37 54.984 1213 54.312C1212.63 53.624 1212.12 53.096 1211.46 52.728C1210.82 52.36 1210.1 52.176 1209.28 52.176C1208.46 52.176 1207.73 52.36 1207.07 52.728C1206.43 53.096 1205.92 53.624 1205.54 54.312C1205.17 54.984 1204.98 55.76 1204.98 56.64C1204.98 57.52 1205.17 58.304 1205.54 58.992C1205.92 59.664 1206.43 60.192 1207.07 60.576C1207.73 60.944 1208.46 61.128 1209.28 61.128ZM1225.81 50.16C1227.04 50.16 1228.15 50.432 1229.12 50.976C1230.1 51.52 1230.86 52.28 1231.4 53.256C1231.96 54.232 1232.24 55.36 1232.24 56.64C1232.24 57.92 1231.96 59.056 1231.4 60.048C1230.86 61.024 1230.1 61.784 1229.12 62.328C1228.15 62.872 1227.04 63.144 1225.81 63.144C1224.9 63.144 1224.06 62.968 1223.29 62.616C1222.54 62.264 1221.9 61.752 1221.37 61.08V67.656H1219.07V50.28H1221.27V52.296C1221.79 51.592 1222.43 51.064 1223.22 50.712C1224 50.344 1224.87 50.16 1225.81 50.16ZM1225.62 61.128C1226.43 61.128 1227.16 60.944 1227.8 60.576C1228.46 60.192 1228.97 59.664 1229.34 58.992C1229.72 58.304 1229.91 57.52 1229.91 56.64C1229.91 55.76 1229.72 54.984 1229.34 54.312C1228.97 53.624 1228.46 53.096 1227.8 52.728C1227.16 52.36 1226.43 52.176 1225.62 52.176C1224.82 52.176 1224.09 52.368 1223.43 52.752C1222.79 53.12 1222.28 53.64 1221.9 54.312C1221.53 54.984 1221.35 55.76 1221.35 56.64C1221.35 57.52 1221.53 58.304 1221.9 58.992C1222.27 59.664 1222.78 60.192 1223.43 60.576C1224.09 60.944 1224.82 61.128 1225.62 61.128ZM1240.87 63.144C1239.61 63.144 1238.47 62.864 1237.47 62.304C1236.46 61.744 1235.67 60.976 1235.09 60C1234.53 59.008 1234.25 57.888 1234.25 56.64C1234.25 55.392 1234.53 54.28 1235.09 53.304C1235.67 52.312 1236.46 51.544 1237.47 51C1238.47 50.44 1239.61 50.16 1240.87 50.16C1242.14 50.16 1243.27 50.44 1244.26 51C1245.27 51.544 1246.05 52.312 1246.61 53.304C1247.19 54.28 1247.47 55.392 1247.47 56.64C1247.47 57.888 1247.19 59.008 1246.61 60C1246.05 60.976 1245.27 61.744 1244.26 62.304C1243.27 62.864 1242.14 63.144 1240.87 63.144ZM1240.87 61.128C1241.69 61.128 1242.42 60.944 1243.06 60.576C1243.71 60.192 1244.23 59.664 1244.59 58.992C1244.96 58.304 1245.15 57.52 1245.15 56.64C1245.15 55.76 1244.96 54.984 1244.59 54.312C1244.23 53.624 1243.71 53.096 1243.06 52.728C1242.42 52.36 1241.69 52.176 1240.87 52.176C1240.06 52.176 1239.32 52.36 1238.67 52.728C1238.03 53.096 1237.51 53.624 1237.13 54.312C1236.76 54.984 1236.58 55.76 1236.58 56.64C1236.58 57.52 1236.76 58.304 1237.13 58.992C1237.51 59.664 1238.03 60.192 1238.67 60.576C1239.32 60.944 1240.06 61.128 1240.87 61.128ZM1254.31 63.144C1253.27 63.144 1252.27 63.008 1251.31 62.736C1250.35 62.448 1249.6 62.088 1249.05 61.656L1250.01 59.832C1250.57 60.232 1251.25 60.552 1252.05 60.792C1252.85 61.032 1253.66 61.152 1254.48 61.152C1256.49 61.152 1257.5 60.576 1257.5 59.424C1257.5 59.04 1257.36 58.736 1257.09 58.512C1256.82 58.288 1256.48 58.128 1256.06 58.032C1255.66 57.92 1255.08 57.8 1254.33 57.672C1253.31 57.512 1252.47 57.328 1251.81 57.12C1251.17 56.912 1250.62 56.56 1250.16 56.064C1249.69 55.568 1249.46 54.872 1249.46 53.976C1249.46 52.824 1249.94 51.904 1250.9 51.216C1251.86 50.512 1253.15 50.16 1254.76 50.16C1255.61 50.16 1256.46 50.264 1257.31 50.472C1258.16 50.68 1258.85 50.96 1259.4 51.312L1258.41 53.136C1257.37 52.464 1256.15 52.128 1254.74 52.128C1253.76 52.128 1253.02 52.288 1252.51 52.608C1252 52.928 1251.74 53.352 1251.74 53.88C1251.74 54.296 1251.88 54.624 1252.17 54.864C1252.46 55.104 1252.81 55.28 1253.23 55.392C1253.66 55.504 1254.26 55.632 1255.03 55.776C1256.05 55.952 1256.88 56.144 1257.5 56.352C1258.14 56.544 1258.68 56.88 1259.13 57.36C1259.58 57.84 1259.8 58.512 1259.8 59.376C1259.8 60.528 1259.31 61.448 1258.32 62.136C1257.34 62.808 1256 63.144 1254.31 63.144Z" fill="black"/>
<path d="M40.5745 172.649L29.3401 184.136V200.256H20.5V138H29.3401V172.834L62.859 138H72.9883L46.6521 165.978L74.83 200.256H64.5165L40.5745 172.649Z" fill="#FF6060"/>
<path d="M139.289 195.253L142.789 188.583C146.84 191.362 153.102 193.401 159.18 193.401C167.099 193.401 170.23 190.992 170.23 186.916C170.23 176.354 140.578 185.433 140.578 166.719C140.578 158.196 148.129 152.638 160.1 152.638C166.178 152.638 173.176 154.305 177.228 156.899L173.545 163.569C169.309 160.79 164.705 159.864 160.1 159.864C152.734 159.864 149.05 162.643 149.05 166.349C149.05 177.466 178.702 168.387 178.702 186.73C178.702 195.253 170.966 200.627 158.443 200.627C150.892 200.812 143.157 198.403 139.289 195.253Z" fill="#FF6060"/>
<path d="M230.822 171.722V200.256H222.718V193.956C219.956 198.218 214.615 200.627 207.248 200.627C196.566 200.627 189.936 194.883 189.936 186.73C189.936 179.134 194.724 173.019 208.721 173.019H222.166V171.352C222.166 164.125 217.93 160.049 209.642 160.049C204.117 160.049 198.408 162.087 194.724 165.052L191.225 158.567C196.014 154.676 203.012 152.452 210.563 152.452C223.639 152.638 230.822 158.937 230.822 171.722ZM222.35 185.804V179.134H209.274C200.802 179.134 198.408 182.469 198.408 186.36C198.408 190.992 202.275 193.956 208.721 193.956C215.167 194.142 220.324 191.362 222.35 185.804Z" fill="#FF6060"/>
<path d="M112.032 187.842V200.441L117.373 197.292V184.692L112.032 187.842Z" fill="#FF6060"/>
<path d="M126.766 172.463L104.85 159.678L92.6944 152.638L80.7234 173.575L80.9076 193.215L102.64 206L104.85 204.703V186.174L114.611 168.943L124.556 174.687V193.215L126.766 191.918V172.463Z" fill="#FF6060"/>
<path d="M1011.68 176.8H1002.76L1000.91 181H998.437L1006.04 164.2H1008.42L1016.05 181H1013.53L1011.68 176.8ZM1010.84 174.88L1007.22 166.648L1003.6 174.88H1010.84ZM1023.65 181.144C1022.35 181.144 1021.19 180.864 1020.17 180.304C1019.16 179.744 1018.37 178.976 1017.79 178C1017.22 177.008 1016.93 175.888 1016.93 174.64C1016.93 173.392 1017.22 172.28 1017.79 171.304C1018.37 170.312 1019.16 169.544 1020.17 169C1021.19 168.44 1022.35 168.16 1023.65 168.16C1024.8 168.16 1025.83 168.392 1026.72 168.856C1027.63 169.32 1028.34 169.992 1028.83 170.872L1027.08 172C1026.68 171.392 1026.19 170.936 1025.59 170.632C1025 170.328 1024.35 170.176 1023.63 170.176C1022.79 170.176 1022.04 170.36 1021.37 170.728C1020.71 171.096 1020.19 171.624 1019.81 172.312C1019.44 172.984 1019.26 173.76 1019.26 174.64C1019.26 175.536 1019.44 176.328 1019.81 177.016C1020.19 177.688 1020.71 178.208 1021.37 178.576C1022.04 178.944 1022.79 179.128 1023.63 179.128C1024.35 179.128 1025 178.976 1025.59 178.672C1026.19 178.368 1026.68 177.912 1027.08 177.304L1028.83 178.408C1028.34 179.288 1027.63 179.968 1026.72 180.448C1025.83 180.912 1024.8 181.144 1023.65 181.144ZM1037.17 181.144C1035.88 181.144 1034.72 180.864 1033.69 180.304C1032.69 179.744 1031.89 178.976 1031.32 178C1030.74 177.008 1030.45 175.888 1030.45 174.64C1030.45 173.392 1030.74 172.28 1031.32 171.304C1031.89 170.312 1032.69 169.544 1033.69 169C1034.72 168.44 1035.88 168.16 1037.17 168.16C1038.33 168.16 1039.35 168.392 1040.25 168.856C1041.16 169.32 1041.86 169.992 1042.36 170.872L1040.61 172C1040.21 171.392 1039.71 170.936 1039.12 170.632C1038.53 170.328 1037.87 170.176 1037.15 170.176C1036.32 170.176 1035.57 170.36 1034.89 170.728C1034.24 171.096 1033.72 171.624 1033.33 172.312C1032.97 172.984 1032.78 173.76 1032.78 174.64C1032.78 175.536 1032.97 176.328 1033.33 177.016C1033.72 177.688 1034.24 178.208 1034.89 178.576C1035.57 178.944 1036.32 179.128 1037.15 179.128C1037.87 179.128 1038.53 178.976 1039.12 178.672C1039.71 178.368 1040.21 177.912 1040.61 177.304L1042.36 178.408C1041.86 179.288 1041.16 179.968 1040.25 180.448C1039.35 180.912 1038.33 181.144 1037.17 181.144ZM1057.2 168.28V181H1055.01V179.08C1054.55 179.736 1053.93 180.248 1053.16 180.616C1052.41 180.968 1051.59 181.144 1050.69 181.144C1049 181.144 1047.66 180.68 1046.68 179.752C1045.71 178.808 1045.22 177.424 1045.22 175.6V168.28H1047.52V175.336C1047.52 176.568 1047.82 177.504 1048.41 178.144C1049 178.768 1049.85 179.08 1050.96 179.08C1052.17 179.08 1053.13 178.712 1053.84 177.976C1054.54 177.24 1054.89 176.2 1054.89 174.856V168.28H1057.2ZM1073.08 174.712C1073.08 174.888 1073.06 175.12 1073.03 175.408H1062.71C1062.85 176.528 1063.34 177.432 1064.17 178.12C1065.02 178.792 1066.07 179.128 1067.32 179.128C1068.84 179.128 1070.06 178.616 1070.99 177.592L1072.26 179.08C1071.69 179.752 1070.97 180.264 1070.1 180.616C1069.25 180.968 1068.3 181.144 1067.25 181.144C1065.9 181.144 1064.71 180.872 1063.67 180.328C1062.63 179.768 1061.82 178.992 1061.25 178C1060.69 177.008 1060.41 175.888 1060.41 174.64C1060.41 173.408 1060.68 172.296 1061.22 171.304C1061.78 170.312 1062.54 169.544 1063.5 169C1064.48 168.44 1065.57 168.16 1066.79 168.16C1068.01 168.16 1069.09 168.44 1070.03 169C1070.99 169.544 1071.73 170.312 1072.26 171.304C1072.81 172.296 1073.08 173.432 1073.08 174.712ZM1066.79 170.104C1065.69 170.104 1064.76 170.44 1064.01 171.112C1063.27 171.784 1062.84 172.664 1062.71 173.752H1070.87C1070.74 172.68 1070.3 171.808 1069.55 171.136C1068.81 170.448 1067.89 170.104 1066.79 170.104ZM1076.28 168.28H1078.58V181H1076.28V168.28ZM1077.43 165.832C1076.98 165.832 1076.61 165.688 1076.3 165.4C1076.01 165.112 1075.87 164.76 1075.87 164.344C1075.87 163.928 1076.01 163.576 1076.3 163.288C1076.61 162.984 1076.98 162.832 1077.43 162.832C1077.88 162.832 1078.25 162.976 1078.53 163.264C1078.84 163.536 1078.99 163.88 1078.99 164.296C1078.99 164.728 1078.84 165.096 1078.53 165.4C1078.25 165.688 1077.88 165.832 1077.43 165.832ZM1082.98 163.192H1085.28V181H1082.98V163.192Z" fill="black"/>
<path d="M1164.41 176.8H1155.48L1153.64 181H1151.16L1158.77 164.2H1161.15L1168.78 181H1166.26L1164.41 176.8ZM1163.57 174.88L1159.95 166.648L1156.32 174.88H1163.57ZM1184.28 164.2C1186.46 164.2 1188.17 164.72 1189.42 165.76C1190.67 166.8 1191.29 168.232 1191.29 170.056C1191.29 171.88 1190.67 173.312 1189.42 174.352C1188.17 175.392 1186.46 175.912 1184.28 175.912H1180.13V181H1177.73V164.2H1184.28ZM1184.21 173.824C1185.73 173.824 1186.89 173.504 1187.69 172.864C1188.49 172.208 1188.89 171.272 1188.89 170.056C1188.89 168.84 1188.49 167.912 1187.69 167.272C1186.89 166.616 1185.73 166.288 1184.21 166.288H1180.13V173.824H1184.21ZM1196.48 170.416C1196.88 169.68 1197.47 169.12 1198.25 168.736C1199.04 168.352 1199.99 168.16 1201.11 168.16V170.392C1200.98 170.376 1200.81 170.368 1200.58 170.368C1199.33 170.368 1198.35 170.744 1197.63 171.496C1196.93 172.232 1196.57 173.288 1196.57 174.664V181H1194.27V168.28H1196.48V170.416ZM1209.28 181.144C1208.02 181.144 1206.88 180.864 1205.87 180.304C1204.86 179.744 1204.07 178.976 1203.5 178C1202.94 177.008 1202.66 175.888 1202.66 174.64C1202.66 173.392 1202.94 172.28 1203.5 171.304C1204.07 170.312 1204.86 169.544 1205.87 169C1206.88 168.44 1208.02 168.16 1209.28 168.16C1210.54 168.16 1211.67 168.44 1212.66 169C1213.67 169.544 1214.46 170.312 1215.02 171.304C1215.59 172.28 1215.88 173.392 1215.88 174.64C1215.88 175.888 1215.59 177.008 1215.02 178C1214.46 178.976 1213.67 179.744 1212.66 180.304C1211.67 180.864 1210.54 181.144 1209.28 181.144ZM1209.28 179.128C1210.1 179.128 1210.82 178.944 1211.46 178.576C1212.12 178.192 1212.63 177.664 1213 176.992C1213.37 176.304 1213.55 175.52 1213.55 174.64C1213.55 173.76 1213.37 172.984 1213 172.312C1212.63 171.624 1212.12 171.096 1211.46 170.728C1210.82 170.36 1210.1 170.176 1209.28 170.176C1208.46 170.176 1207.73 170.36 1207.07 170.728C1206.43 171.096 1205.92 171.624 1205.54 172.312C1205.17 172.984 1204.98 173.76 1204.98 174.64C1204.98 175.52 1205.17 176.304 1205.54 176.992C1205.92 177.664 1206.43 178.192 1207.07 178.576C1207.73 178.944 1208.46 179.128 1209.28 179.128ZM1225.81 168.16C1227.04 168.16 1228.15 168.432 1229.12 168.976C1230.1 169.52 1230.86 170.28 1231.4 171.256C1231.96 172.232 1232.24 173.36 1232.24 174.64C1232.24 175.92 1231.96 177.056 1231.4 178.048C1230.86 179.024 1230.1 179.784 1229.12 180.328C1228.15 180.872 1227.04 181.144 1225.81 181.144C1224.9 181.144 1224.06 180.968 1223.29 180.616C1222.54 180.264 1221.9 179.752 1221.37 179.08V185.656H1219.07V168.28H1221.27V170.296C1221.79 169.592 1222.43 169.064 1223.22 168.712C1224 168.344 1224.87 168.16 1225.81 168.16ZM1225.62 179.128C1226.43 179.128 1227.16 178.944 1227.8 178.576C1228.46 178.192 1228.97 177.664 1229.34 176.992C1229.72 176.304 1229.91 175.52 1229.91 174.64C1229.91 173.76 1229.72 172.984 1229.34 172.312C1228.97 171.624 1228.46 171.096 1227.8 170.728C1227.16 170.36 1226.43 170.176 1225.62 170.176C1224.82 170.176 1224.09 170.368 1223.43 170.752C1222.79 171.12 1222.28 171.64 1221.9 172.312C1221.53 172.984 1221.35 173.76 1221.35 174.64C1221.35 175.52 1221.53 176.304 1221.9 176.992C1222.27 177.664 1222.78 178.192 1223.43 178.576C1224.09 178.944 1224.82 179.128 1225.62 179.128ZM1240.87 181.144C1239.61 181.144 1238.47 180.864 1237.47 180.304C1236.46 179.744 1235.67 178.976 1235.09 178C1234.53 177.008 1234.25 175.888 1234.25 174.64C1234.25 173.392 1234.53 172.28 1235.09 171.304C1235.67 170.312 1236.46 169.544 1237.47 169C1238.47 168.44 1239.61 168.16 1240.87 168.16C1242.14 168.16 1243.27 168.44 1244.26 169C1245.27 169.544 1246.05 170.312 1246.61 171.304C1247.19 172.28 1247.47 173.392 1247.47 174.64C1247.47 175.888 1247.19 177.008 1246.61 178C1246.05 178.976 1245.27 179.744 1244.26 180.304C1243.27 180.864 1242.14 181.144 1240.87 181.144ZM1240.87 179.128C1241.69 179.128 1242.42 178.944 1243.06 178.576C1243.71 178.192 1244.23 177.664 1244.59 176.992C1244.96 176.304 1245.15 175.52 1245.15 174.64C1245.15 173.76 1244.96 172.984 1244.59 172.312C1244.23 171.624 1243.71 171.096 1243.06 170.728C1242.42 170.36 1241.69 170.176 1240.87 170.176C1240.06 170.176 1239.32 170.36 1238.67 170.728C1238.03 171.096 1237.51 171.624 1237.13 172.312C1236.76 172.984 1236.58 173.76 1236.58 174.64C1236.58 175.52 1236.76 176.304 1237.13 176.992C1237.51 177.664 1238.03 178.192 1238.67 178.576C1239.32 178.944 1240.06 179.128 1240.87 179.128ZM1254.31 181.144C1253.27 181.144 1252.27 181.008 1251.31 180.736C1250.35 180.448 1249.6 180.088 1249.05 179.656L1250.01 177.832C1250.57 178.232 1251.25 178.552 1252.05 178.792C1252.85 179.032 1253.66 179.152 1254.48 179.152C1256.49 179.152 1257.5 178.576 1257.5 177.424C1257.5 177.04 1257.36 176.736 1257.09 176.512C1256.82 176.288 1256.48 176.128 1256.06 176.032C1255.66 175.92 1255.08 175.8 1254.33 175.672C1253.31 175.512 1252.47 175.328 1251.81 175.12C1251.17 174.912 1250.62 174.56 1250.16 174.064C1249.69 173.568 1249.46 172.872 1249.46 171.976C1249.46 170.824 1249.94 169.904 1250.9 169.216C1251.86 168.512 1253.15 168.16 1254.76 168.16C1255.61 168.16 1256.46 168.264 1257.31 168.472C1258.16 168.68 1258.85 168.96 1259.4 169.312L1258.41 171.136C1257.37 170.464 1256.15 170.128 1254.74 170.128C1253.76 170.128 1253.02 170.288 1252.51 170.608C1252 170.928 1251.74 171.352 1251.74 171.88C1251.74 172.296 1251.88 172.624 1252.17 172.864C1252.46 173.104 1252.81 173.28 1253.23 173.392C1253.66 173.504 1254.26 173.632 1255.03 173.776C1256.05 173.952 1256.88 174.144 1257.5 174.352C1258.14 174.544 1258.68 174.88 1259.13 175.36C1259.58 175.84 1259.8 176.512 1259.8 177.376C1259.8 178.528 1259.31 179.448 1258.32 180.136C1257.34 180.808 1256 181.144 1254.31 181.144Z" fill="black"/>
<path d="M1151.19 183.4H1260.5V184.6H1151.19V183.4Z" fill="black"/>
<path d="M40.5745 290.649L29.3401 302.136V318.256H20.5V256H29.3401V290.834L62.859 256H72.9883L46.6521 283.978L74.83 318.256H64.5165L40.5745 290.649Z" fill="#FF6060"/>
<path d="M139.289 313.253L142.789 306.583C146.84 309.362 153.102 311.401 159.18 311.401C167.099 311.401 170.23 308.992 170.23 304.916C170.23 294.354 140.578 303.433 140.578 284.719C140.578 276.196 148.129 270.638 160.1 270.638C166.178 270.638 173.176 272.305 177.228 274.899L173.545 281.569C169.309 278.79 164.705 277.864 160.1 277.864C152.734 277.864 149.05 280.643 149.05 284.349C149.05 295.466 178.702 286.387 178.702 304.73C178.702 313.253 170.966 318.627 158.443 318.627C150.892 318.812 143.157 316.403 139.289 313.253Z" fill="#FF6060"/>
<path d="M230.822 289.722V318.256H222.718V311.956C219.956 316.218 214.615 318.627 207.248 318.627C196.566 318.627 189.936 312.883 189.936 304.73C189.936 297.134 194.724 291.019 208.721 291.019H222.166V289.352C222.166 282.125 217.93 278.049 209.642 278.049C204.117 278.049 198.408 280.087 194.724 283.052L191.225 276.567C196.014 272.676 203.012 270.452 210.563 270.452C223.639 270.638 230.822 276.937 230.822 289.722ZM222.35 303.804V297.134H209.274C200.802 297.134 198.408 300.469 198.408 304.36C198.408 308.992 202.275 311.956 208.721 311.956C215.167 312.142 220.324 309.362 222.35 303.804Z" fill="#FF6060"/>
<path d="M112.032 305.842V318.441L117.373 315.292V302.692L112.032 305.842Z" fill="#FF6060"/>
<path d="M126.766 290.463L104.85 277.678L92.6944 270.638L80.7234 291.575L80.9076 311.215L102.64 324L104.85 322.703V304.174L114.611 286.943L124.556 292.687V311.215L126.766 309.918V290.463Z" fill="#FF6060"/>
<path d="M1011.68 294.8H1002.76L1000.91 299H998.437L1006.04 282.2H1008.42L1016.05 299H1013.53L1011.68 294.8ZM1010.84 292.88L1007.22 284.648L1003.6 292.88H1010.84ZM1023.65 299.144C1022.35 299.144 1021.19 298.864 1020.17 298.304C1019.16 297.744 1018.37 296.976 1017.79 296C1017.22 295.008 1016.93 293.888 1016.93 292.64C1016.93 291.392 1017.22 290.28 1017.79 289.304C1018.37 288.312 1019.16 287.544 1020.17 287C1021.19 286.44 1022.35 286.16 1023.65 286.16C1024.8 286.16 1025.83 286.392 1026.72 286.856C1027.63 287.32 1028.34 287.992 1028.83 288.872L1027.08 290C1026.68 289.392 1026.19 288.936 1025.59 288.632C1025 288.328 1024.35 288.176 1023.63 288.176C1022.79 288.176 1022.04 288.36 1021.37 288.728C1020.71 289.096 1020.19 289.624 1019.81 290.312C1019.44 290.984 1019.26 291.76 1019.26 292.64C1019.26 293.536 1019.44 294.328 1019.81 295.016C1020.19 295.688 1020.71 296.208 1021.37 296.576C1022.04 296.944 1022.79 297.128 1023.63 297.128C1024.35 297.128 1025 296.976 1025.59 296.672C1026.19 296.368 1026.68 295.912 1027.08 295.304L1028.83 296.408C1028.34 297.288 1027.63 297.968 1026.72 298.448C1025.83 298.912 1024.8 299.144 1023.65 299.144ZM1037.17 299.144C1035.88 299.144 1034.72 298.864 1033.69 298.304C1032.69 297.744 1031.89 296.976 1031.32 296C1030.74 295.008 1030.45 293.888 1030.45 292.64C1030.45 291.392 1030.74 290.28 1031.32 289.304C1031.89 288.312 1032.69 287.544 1033.69 287C1034.72 286.44 1035.88 286.16 1037.17 286.16C1038.33 286.16 1039.35 286.392 1040.25 286.856C1041.16 287.32 1041.86 287.992 1042.36 288.872L1040.61 290C1040.21 289.392 1039.71 288.936 1039.12 288.632C1038.53 288.328 1037.87 288.176 1037.15 288.176C1036.32 288.176 1035.57 288.36 1034.89 288.728C1034.24 289.096 1033.72 289.624 1033.33 290.312C1032.97 290.984 1032.78 291.76 1032.78 292.64C1032.78 293.536 1032.97 294.328 1033.33 295.016C1033.72 295.688 1034.24 296.208 1034.89 296.576C1035.57 296.944 1036.32 297.128 1037.15 297.128C1037.87 297.128 1038.53 296.976 1039.12 296.672C1039.71 296.368 1040.21 295.912 1040.61 295.304L1042.36 296.408C1041.86 297.288 1041.16 297.968 1040.25 298.448C1039.35 298.912 1038.33 299.144 1037.17 299.144ZM1057.2 286.28V299H1055.01V297.08C1054.55 297.736 1053.93 298.248 1053.16 298.616C1052.41 298.968 1051.59 299.144 1050.69 299.144C1049 299.144 1047.66 298.68 1046.68 297.752C1045.71 296.808 1045.22 295.424 1045.22 293.6V286.28H1047.52V293.336C1047.52 294.568 1047.82 295.504 1048.41 296.144C1049 296.768 1049.85 297.08 1050.96 297.08C1052.17 297.08 1053.13 296.712 1053.84 295.976C1054.54 295.24 1054.89 294.2 1054.89 292.856V286.28H1057.2ZM1073.08 292.712C1073.08 292.888 1073.06 293.12 1073.03 293.408H1062.71C1062.85 294.528 1063.34 295.432 1064.17 296.12C1065.02 296.792 1066.07 297.128 1067.32 297.128C1068.84 297.128 1070.06 296.616 1070.99 295.592L1072.26 297.08C1071.69 297.752 1070.97 298.264 1070.1 298.616C1069.25 298.968 1068.3 299.144 1067.25 299.144C1065.9 299.144 1064.71 298.872 1063.67 298.328C1062.63 297.768 1061.82 296.992 1061.25 296C1060.69 295.008 1060.41 293.888 1060.41 292.64C1060.41 291.408 1060.68 290.296 1061.22 289.304C1061.78 288.312 1062.54 287.544 1063.5 287C1064.48 286.44 1065.57 286.16 1066.79 286.16C1068.01 286.16 1069.09 286.44 1070.03 287C1070.99 287.544 1071.73 288.312 1072.26 289.304C1072.81 290.296 1073.08 291.432 1073.08 292.712ZM1066.79 288.104C1065.69 288.104 1064.76 288.44 1064.01 289.112C1063.27 289.784 1062.84 290.664 1062.71 291.752H1070.87C1070.74 290.68 1070.3 289.808 1069.55 289.136C1068.81 288.448 1067.89 288.104 1066.79 288.104ZM1076.28 286.28H1078.58V299H1076.28V286.28ZM1077.43 283.832C1076.98 283.832 1076.61 283.688 1076.3 283.4C1076.01 283.112 1075.87 282.76 1075.87 282.344C1075.87 281.928 1076.01 281.576 1076.3 281.288C1076.61 280.984 1076.98 280.832 1077.43 280.832C1077.88 280.832 1078.25 280.976 1078.53 281.264C1078.84 281.536 1078.99 281.88 1078.99 282.296C1078.99 282.728 1078.84 283.096 1078.53 283.4C1078.25 283.688 1077.88 283.832 1077.43 283.832ZM1082.98 281.192H1085.28V299H1082.98V281.192Z" fill="black"/>
<path d="M1164.41 294.8H1155.48L1153.64 299H1151.16L1158.77 282.2H1161.15L1168.78 299H1166.26L1164.41 294.8ZM1163.57 292.88L1159.95 284.648L1156.32 292.88H1163.57ZM1184.28 282.2C1186.46 282.2 1188.17 282.72 1189.42 283.76C1190.67 284.8 1191.29 286.232 1191.29 288.056C1191.29 289.88 1190.67 291.312 1189.42 292.352C1188.17 293.392 1186.46 293.912 1184.28 293.912H1180.13V299H1177.73V282.2H1184.28ZM1184.21 291.824C1185.73 291.824 1186.89 291.504 1187.69 290.864C1188.49 290.208 1188.89 289.272 1188.89 288.056C1188.89 286.84 1188.49 285.912 1187.69 285.272C1186.89 284.616 1185.73 284.288 1184.21 284.288H1180.13V291.824H1184.21ZM1196.48 288.416C1196.88 287.68 1197.47 287.12 1198.25 286.736C1199.04 286.352 1199.99 286.16 1201.11 286.16V288.392C1200.98 288.376 1200.81 288.368 1200.58 288.368C1199.33 288.368 1198.35 288.744 1197.63 289.496C1196.93 290.232 1196.57 291.288 1196.57 292.664V299H1194.27V286.28H1196.48V288.416ZM1209.28 299.144C1208.02 299.144 1206.88 298.864 1205.87 298.304C1204.86 297.744 1204.07 296.976 1203.5 296C1202.94 295.008 1202.66 293.888 1202.66 292.64C1202.66 291.392 1202.94 290.28 1203.5 289.304C1204.07 288.312 1204.86 287.544 1205.87 287C1206.88 286.44 1208.02 286.16 1209.28 286.16C1210.54 286.16 1211.67 286.44 1212.66 287C1213.67 287.544 1214.46 288.312 1215.02 289.304C1215.59 290.28 1215.88 291.392 1215.88 292.64C1215.88 293.888 1215.59 295.008 1215.02 296C1214.46 296.976 1213.67 297.744 1212.66 298.304C1211.67 298.864 1210.54 299.144 1209.28 299.144ZM1209.28 297.128C1210.1 297.128 1210.82 296.944 1211.46 296.576C1212.12 296.192 1212.63 295.664 1213 294.992C1213.37 294.304 1213.55 293.52 1213.55 292.64C1213.55 291.76 1213.37 290.984 1213 290.312C1212.63 289.624 1212.12 289.096 1211.46 288.728C1210.82 288.36 1210.1 288.176 1209.28 288.176C1208.46 288.176 1207.73 288.36 1207.07 288.728C1206.43 289.096 1205.92 289.624 1205.54 290.312C1205.17 290.984 1204.98 291.76 1204.98 292.64C1204.98 293.52 1205.17 294.304 1205.54 294.992C1205.92 295.664 1206.43 296.192 1207.07 296.576C1207.73 296.944 1208.46 297.128 1209.28 297.128ZM1225.81 286.16C1227.04 286.16 1228.15 286.432 1229.12 286.976C1230.1 287.52 1230.86 288.28 1231.4 289.256C1231.96 290.232 1232.24 291.36 1232.24 292.64C1232.24 293.92 1231.96 295.056 1231.4 296.048C1230.86 297.024 1230.1 297.784 1229.12 298.328C1228.15 298.872 1227.04 299.144 1225.81 299.144C1224.9 299.144 1224.06 298.968 1223.29 298.616C1222.54 298.264 1221.9 297.752 1221.37 297.08V303.656H1219.07V286.28H1221.27V288.296C1221.79 287.592 1222.43 287.064 1223.22 286.712C1224 286.344 1224.87 286.16 1225.81 286.16ZM1225.62 297.128C1226.43 297.128 1227.16 296.944 1227.8 296.576C1228.46 296.192 1228.97 295.664 1229.34 294.992C1229.72 294.304 1229.91 293.52 1229.91 292.64C1229.91 291.76 1229.72 290.984 1229.34 290.312C1228.97 289.624 1228.46 289.096 1227.8 288.728C1227.16 288.36 1226.43 288.176 1225.62 288.176C1224.82 288.176 1224.09 288.368 1223.43 288.752C1222.79 289.12 1222.28 289.64 1221.9 290.312C1221.53 290.984 1221.35 291.76 1221.35 292.64C1221.35 293.52 1221.53 294.304 1221.9 294.992C1222.27 295.664 1222.78 296.192 1223.43 296.576C1224.09 296.944 1224.82 297.128 1225.62 297.128ZM1240.87 299.144C1239.61 299.144 1238.47 298.864 1237.47 298.304C1236.46 297.744 1235.67 296.976 1235.09 296C1234.53 295.008 1234.25 293.888 1234.25 292.64C1234.25 291.392 1234.53 290.28 1235.09 289.304C1235.67 288.312 1236.46 287.544 1237.47 287C1238.47 286.44 1239.61 286.16 1240.87 286.16C1242.14 286.16 1243.27 286.44 1244.26 287C1245.27 287.544 1246.05 288.312 1246.61 289.304C1247.19 290.28 1247.47 291.392 1247.47 292.64C1247.47 293.888 1247.19 295.008 1246.61 296C1246.05 296.976 1245.27 297.744 1244.26 298.304C1243.27 298.864 1242.14 299.144 1240.87 299.144ZM1240.87 297.128C1241.69 297.128 1242.42 296.944 1243.06 296.576C1243.71 296.192 1244.23 295.664 1244.59 294.992C1244.96 294.304 1245.15 293.52 1245.15 292.64C1245.15 291.76 1244.96 290.984 1244.59 290.312C1244.23 289.624 1243.71 289.096 1243.06 288.728C1242.42 288.36 1241.69 288.176 1240.87 288.176C1240.06 288.176 1239.32 288.36 1238.67 288.728C1238.03 289.096 1237.51 289.624 1237.13 290.312C1236.76 290.984 1236.58 291.76 1236.58 292.64C1236.58 293.52 1236.76 294.304 1237.13 294.992C1237.51 295.664 1238.03 296.192 1238.67 296.576C1239.32 296.944 1240.06 297.128 1240.87 297.128ZM1254.31 299.144C1253.27 299.144 1252.27 299.008 1251.31 298.736C1250.35 298.448 1249.6 298.088 1249.05 297.656L1250.01 295.832C1250.57 296.232 1251.25 296.552 1252.05 296.792C1252.85 297.032 1253.66 297.152 1254.48 297.152C1256.49 297.152 1257.5 296.576 1257.5 295.424C1257.5 295.04 1257.36 294.736 1257.09 294.512C1256.82 294.288 1256.48 294.128 1256.06 294.032C1255.66 293.92 1255.08 293.8 1254.33 293.672C1253.31 293.512 1252.47 293.328 1251.81 293.12C1251.17 292.912 1250.62 292.56 1250.16 292.064C1249.69 291.568 1249.46 290.872 1249.46 289.976C1249.46 288.824 1249.94 287.904 1250.9 287.216C1251.86 286.512 1253.15 286.16 1254.76 286.16C1255.61 286.16 1256.46 286.264 1257.31 286.472C1258.16 286.68 1258.85 286.96 1259.4 287.312L1258.41 289.136C1257.37 288.464 1256.15 288.128 1254.74 288.128C1253.76 288.128 1253.02 288.288 1252.51 288.608C1252 288.928 1251.74 289.352 1251.74 289.88C1251.74 290.296 1251.88 290.624 1252.17 290.864C1252.46 291.104 1252.81 291.28 1253.23 291.392C1253.66 291.504 1254.26 291.632 1255.03 291.776C1256.05 291.952 1256.88 292.144 1257.5 292.352C1258.14 292.544 1258.68 292.88 1259.13 293.36C1259.58 293.84 1259.8 294.512 1259.8 295.376C1259.8 296.528 1259.31 297.448 1258.32 298.136C1257.34 298.808 1256 299.144 1254.31 299.144Z" fill="black"/>
<path d="M34.3398 397.887L26.5946 405.807V416.921H20.5V374H26.5946V398.015L49.7032 374H56.6865L38.5298 393.289L57.9562 416.921H50.8459L34.3398 397.887Z" fill="#FF6060"/>
<path d="M102.396 413.472L104.808 408.873C107.602 410.789 111.919 412.194 116.109 412.194C121.568 412.194 123.727 410.534 123.727 407.723C123.727 400.442 103.285 406.701 103.285 393.8C103.285 387.924 108.49 384.091 116.743 384.091C120.933 384.091 125.758 385.241 128.552 387.029L126.012 391.628C123.092 389.712 119.918 389.073 116.743 389.073C111.665 389.073 109.125 390.989 109.125 393.544C109.125 401.209 129.567 394.949 129.567 407.596C129.567 413.472 124.235 417.176 115.601 417.176C110.395 417.304 105.062 415.643 102.396 413.472Z" fill="#FF6060"/>
<path d="M165.5 397.249V416.921H159.913V412.578C158.009 415.516 154.327 417.176 149.248 417.176C141.884 417.176 137.313 413.216 137.313 407.596C137.313 402.358 140.614 398.143 150.264 398.143H159.533V396.993C159.533 392.011 156.612 389.201 150.899 389.201C147.089 389.201 143.153 390.606 140.614 392.65L138.202 388.179C141.503 385.497 146.328 383.964 151.533 383.964C160.548 384.091 165.5 388.435 165.5 397.249ZM159.66 406.957V402.358H150.645C144.804 402.358 143.153 404.658 143.153 407.34C143.153 410.534 145.82 412.578 150.264 412.578C154.708 412.705 158.263 410.789 159.66 406.957Z" fill="#FF6060"/>
<path d="M83.6042 408.362V417.048L87.2864 414.877V406.19L83.6042 408.362Z" fill="#FF6060"/>
<path d="M93.7618 397.76L78.6524 388.946L70.2724 384.091L62.0193 398.526L62.1463 412.067L77.1287 420.881L78.6524 419.986V407.212L85.3818 395.333L92.2382 399.293V412.067L93.7618 411.172V397.76Z" fill="#FF6060"/>
<path d="M215.936 399.84H211.472L210.548 401.94H209.312L213.116 393.54H214.304L218.12 401.94H216.86L215.936 399.84ZM215.516 398.88L213.704 394.764L211.892 398.88H215.516ZM223.012 402.036C222.172 402.036 221.412 401.852 220.732 401.484C220.06 401.108 219.532 400.596 219.148 399.948C218.764 399.292 218.572 398.556 218.572 397.74C218.572 396.924 218.764 396.192 219.148 395.544C219.532 394.888 220.064 394.376 220.744 394.008C221.424 393.632 222.184 393.444 223.024 393.444C223.68 393.444 224.28 393.556 224.824 393.78C225.368 393.996 225.832 394.32 226.216 394.752L225.436 395.508C224.804 394.844 224.016 394.512 223.072 394.512C222.448 394.512 221.884 394.652 221.38 394.932C220.876 395.212 220.48 395.6 220.192 396.096C219.912 396.584 219.772 397.132 219.772 397.74C219.772 398.348 219.912 398.9 220.192 399.396C220.48 399.884 220.876 400.268 221.38 400.548C221.884 400.828 222.448 400.968 223.072 400.968C224.008 400.968 224.796 400.632 225.436 399.96L226.216 400.716C225.832 401.148 225.364 401.476 224.812 401.7C224.268 401.924 223.668 402.036 223.012 402.036ZM231.508 402.036C230.668 402.036 229.908 401.852 229.228 401.484C228.556 401.108 228.028 400.596 227.644 399.948C227.26 399.292 227.068 398.556 227.068 397.74C227.068 396.924 227.26 396.192 227.644 395.544C228.028 394.888 228.56 394.376 229.24 394.008C229.92 393.632 230.68 393.444 231.52 393.444C232.176 393.444 232.776 393.556 233.32 393.78C233.864 393.996 234.328 394.32 234.712 394.752L233.932 395.508C233.3 394.844 232.512 394.512 231.568 394.512C230.944 394.512 230.38 394.652 229.876 394.932C229.372 395.212 228.976 395.6 228.688 396.096C228.408 396.584 228.268 397.132 228.268 397.74C228.268 398.348 228.408 398.9 228.688 399.396C228.976 399.884 229.372 400.268 229.876 400.548C230.38 400.828 230.944 400.968 231.568 400.968C232.504 400.968 233.292 400.632 233.932 399.96L234.712 400.716C234.328 401.148 233.86 401.476 233.308 401.7C232.764 401.924 232.164 402.036 231.508 402.036ZM239.869 402.036C238.749 402.036 237.877 401.716 237.253 401.076C236.629 400.436 236.317 399.516 236.317 398.316V393.54H237.517V398.268C237.517 400.068 238.305 400.968 239.881 400.968C240.649 400.968 241.237 400.748 241.645 400.308C242.053 399.86 242.257 399.18 242.257 398.268V393.54H243.421V398.316C243.421 399.524 243.109 400.448 242.485 401.088C241.861 401.72 240.989 402.036 239.869 402.036ZM251.977 400.896V401.94H245.881V393.54H251.809V394.584H247.081V397.164H251.293V398.184H247.081V400.896H251.977ZM253.92 393.54H255.12V401.94H253.92V393.54ZM257.635 393.54H258.835V400.896H263.383V401.94H257.635V393.54Z" fill="black"/>
<path d="M209.324 403.14H263.503V403.74H209.324V403.14Z" fill="black"/>
<path d="M296.569 399.84H292.105L291.181 401.94H289.945L293.749 393.54H294.937L298.753 401.94H297.493L296.569 399.84ZM296.149 398.88L294.337 394.764L292.525 398.88H296.149ZM306.505 393.54C307.593 393.54 308.449 393.8 309.073 394.32C309.697 394.84 310.009 395.556 310.009 396.468C310.009 397.38 309.697 398.096 309.073 398.616C308.449 399.136 307.593 399.396 306.505 399.396H304.429V401.94H303.229V393.54H306.505ZM306.469 398.352C307.229 398.352 307.809 398.192 308.209 397.872C308.609 397.544 308.809 397.076 308.809 396.468C308.809 395.86 308.609 395.396 308.209 395.076C307.809 394.748 307.229 394.584 306.469 394.584H304.429V398.352H306.469ZM317.388 401.94L315.576 399.36C315.352 399.376 315.176 399.384 315.048 399.384H312.972V401.94H311.772V393.54H315.048C316.136 393.54 316.992 393.8 317.616 394.32C318.24 394.84 318.552 395.556 318.552 396.468C318.552 397.116 318.392 397.668 318.072 398.124C317.752 398.58 317.296 398.912 316.704 399.12L318.696 401.94H317.388ZM315.012 398.364C315.772 398.364 316.352 398.2 316.752 397.872C317.152 397.544 317.352 397.076 317.352 396.468C317.352 395.86 317.152 395.396 316.752 395.076C316.352 394.748 315.772 394.584 315.012 394.584H312.972V398.364H315.012ZM324.282 402.036C323.434 402.036 322.67 401.852 321.99 401.484C321.31 401.108 320.774 400.592 320.382 399.936C319.998 399.28 319.806 398.548 319.806 397.74C319.806 396.932 319.998 396.2 320.382 395.544C320.774 394.888 321.31 394.376 321.99 394.008C322.67 393.632 323.434 393.444 324.282 393.444C325.122 393.444 325.882 393.632 326.562 394.008C327.242 394.376 327.774 394.888 328.158 395.544C328.542 396.192 328.734 396.924 328.734 397.74C328.734 398.556 328.542 399.292 328.158 399.948C327.774 400.596 327.242 401.108 326.562 401.484C325.882 401.852 325.122 402.036 324.282 402.036ZM324.282 400.968C324.898 400.968 325.45 400.828 325.938 400.548C326.434 400.268 326.822 399.884 327.102 399.396C327.39 398.9 327.534 398.348 327.534 397.74C327.534 397.132 327.39 396.584 327.102 396.096C326.822 395.6 326.434 395.212 325.938 394.932C325.45 394.652 324.898 394.512 324.282 394.512C323.666 394.512 323.106 394.652 322.602 394.932C322.106 395.212 321.714 395.6 321.426 396.096C321.146 396.584 321.006 397.132 321.006 397.74C321.006 398.348 321.146 398.9 321.426 399.396C321.714 399.884 322.106 400.268 322.602 400.548C323.106 400.828 323.666 400.968 324.282 400.968ZM333.845 393.54C334.933 393.54 335.789 393.8 336.413 394.32C337.037 394.84 337.349 395.556 337.349 396.468C337.349 397.38 337.037 398.096 336.413 398.616C335.789 399.136 334.933 399.396 333.845 399.396H331.769V401.94H330.569V393.54H333.845ZM333.809 398.352C334.569 398.352 335.149 398.192 335.549 397.872C335.949 397.544 336.149 397.076 336.149 396.468C336.149 395.86 335.949 395.396 335.549 395.076C335.149 394.748 334.569 394.584 333.809 394.584H331.769V398.352H333.809ZM343.021 402.036C342.173 402.036 341.409 401.852 340.729 401.484C340.049 401.108 339.513 400.592 339.121 399.936C338.737 399.28 338.545 398.548 338.545 397.74C338.545 396.932 338.737 396.2 339.121 395.544C339.513 394.888 340.049 394.376 340.729 394.008C341.409 393.632 342.173 393.444 343.021 393.444C343.861 393.444 344.621 393.632 345.301 394.008C345.981 394.376 346.513 394.888 346.897 395.544C347.281 396.192 347.473 396.924 347.473 397.74C347.473 398.556 347.281 399.292 346.897 399.948C346.513 400.596 345.981 401.108 345.301 401.484C344.621 401.852 343.861 402.036 343.021 402.036ZM343.021 400.968C343.637 400.968 344.189 400.828 344.677 400.548C345.173 400.268 345.561 399.884 345.841 399.396C346.129 398.9 346.273 398.348 346.273 397.74C346.273 397.132 346.129 396.584 345.841 396.096C345.561 395.6 345.173 395.212 344.677 394.932C344.189 394.652 343.637 394.512 343.021 394.512C342.405 394.512 341.845 394.652 341.341 394.932C340.845 395.212 340.453 395.6 340.165 396.096C339.885 396.584 339.745 397.132 339.745 397.74C339.745 398.348 339.885 398.9 340.165 399.396C340.453 399.884 340.845 400.268 341.341 400.548C341.845 400.828 342.405 400.968 343.021 400.968ZM351.755 402.036C351.123 402.036 350.511 401.94 349.919 401.748C349.335 401.548 348.875 401.292 348.539 400.98L348.983 400.044C349.303 400.332 349.711 400.568 350.207 400.752C350.711 400.928 351.227 401.016 351.755 401.016C352.451 401.016 352.971 400.9 353.315 400.668C353.659 400.428 353.831 400.112 353.831 399.72C353.831 399.432 353.735 399.2 353.543 399.024C353.359 398.84 353.127 398.7 352.847 398.604C352.575 398.508 352.187 398.4 351.683 398.28C351.051 398.128 350.539 397.976 350.147 397.824C349.763 397.672 349.431 397.44 349.151 397.128C348.879 396.808 348.743 396.38 348.743 395.844C348.743 395.396 348.859 394.992 349.091 394.632C349.331 394.272 349.691 393.984 350.171 393.768C350.651 393.552 351.247 393.444 351.959 393.444C352.455 393.444 352.943 393.508 353.423 393.636C353.903 393.764 354.315 393.948 354.659 394.188L354.263 395.148C353.911 394.924 353.535 394.756 353.135 394.644C352.735 394.524 352.343 394.464 351.959 394.464C351.279 394.464 350.767 394.588 350.423 394.836C350.087 395.084 349.919 395.404 349.919 395.796C349.919 396.084 350.015 396.32 350.207 396.504C350.399 396.68 350.635 396.82 350.915 396.924C351.203 397.02 351.591 397.124 352.079 397.236C352.711 397.388 353.219 397.54 353.603 397.692C353.987 397.844 354.315 398.076 354.587 398.388C354.867 398.7 355.007 399.12 355.007 399.648C355.007 400.088 354.887 400.492 354.647 400.86C354.407 401.22 354.043 401.508 353.555 401.724C353.067 401.932 352.467 402.036 351.755 402.036Z" fill="black"/>
<path d="M34.3398 494.768L26.5946 502.688V513.801H20.5V470.881H26.5946V494.896L49.7032 470.881H56.6865L38.5298 490.169L57.9562 513.801H50.8459L34.3398 494.768Z" fill="#FF6060"/>
<path d="M102.396 510.352L104.808 505.754C107.602 507.67 111.919 509.075 116.109 509.075C121.568 509.075 123.727 507.414 123.727 504.604C123.727 497.323 103.285 503.582 103.285 490.68C103.285 484.804 108.49 480.972 116.743 480.972C120.933 480.972 125.758 482.122 128.552 483.91L126.012 488.509C123.092 486.593 119.918 485.954 116.743 485.954C111.665 485.954 109.125 487.87 109.125 490.425C109.125 498.089 129.567 491.83 129.567 504.476C129.567 510.352 124.235 514.057 115.601 514.057C110.395 514.184 105.062 512.524 102.396 510.352Z" fill="#FF6060"/>
<path d="M165.5 494.129V513.801H159.913V509.458C158.009 512.396 154.327 514.057 149.248 514.057C141.884 514.057 137.313 510.097 137.313 504.476C137.313 499.239 140.614 495.023 150.264 495.023H159.533V493.874C159.533 488.892 156.612 486.082 150.899 486.082C147.089 486.082 143.153 487.487 140.614 489.531L138.202 485.06C141.503 482.377 146.328 480.844 151.533 480.844C160.548 480.972 165.5 485.315 165.5 494.129ZM159.66 503.838V499.239H150.645C144.804 499.239 143.153 501.538 143.153 504.221C143.153 507.414 145.82 509.458 150.264 509.458C154.708 509.586 158.263 507.67 159.66 503.838Z" fill="#FF6060"/>
<path d="M83.6042 505.243V513.929L87.2864 511.757V503.071L83.6042 505.243Z" fill="#FF6060"/>
<path d="M93.7618 494.64L78.6524 485.826L70.2724 480.972L62.0193 495.407L62.1463 508.947L77.1287 517.761L78.6524 516.867V504.093L85.3818 492.213L92.2382 496.173V508.947L93.7618 508.053V494.64Z" fill="#FF6060"/>
<path d="M215.936 496.721H211.472L210.548 498.821H209.312L213.116 490.421H214.304L218.12 498.821H216.86L215.936 496.721ZM215.516 495.761L213.704 491.645L211.892 495.761H215.516ZM223.012 498.917C222.172 498.917 221.412 498.733 220.732 498.365C220.06 497.989 219.532 497.477 219.148 496.829C218.764 496.173 218.572 495.437 218.572 494.621C218.572 493.805 218.764 493.073 219.148 492.425C219.532 491.769 220.064 491.257 220.744 490.889C221.424 490.513 222.184 490.325 223.024 490.325C223.68 490.325 224.28 490.437 224.824 490.661C225.368 490.877 225.832 491.201 226.216 491.633L225.436 492.389C224.804 491.725 224.016 491.393 223.072 491.393C222.448 491.393 221.884 491.533 221.38 491.813C220.876 492.093 220.48 492.481 220.192 492.977C219.912 493.465 219.772 494.013 219.772 494.621C219.772 495.229 219.912 495.781 220.192 496.277C220.48 496.765 220.876 497.149 221.38 497.429C221.884 497.709 222.448 497.849 223.072 497.849C224.008 497.849 224.796 497.513 225.436 496.841L226.216 497.597C225.832 498.029 225.364 498.357 224.812 498.581C224.268 498.805 223.668 498.917 223.012 498.917ZM231.508 498.917C230.668 498.917 229.908 498.733 229.228 498.365C228.556 497.989 228.028 497.477 227.644 496.829C227.26 496.173 227.068 495.437 227.068 494.621C227.068 493.805 227.26 493.073 227.644 492.425C228.028 491.769 228.56 491.257 229.24 490.889C229.92 490.513 230.68 490.325 231.52 490.325C232.176 490.325 232.776 490.437 233.32 490.661C233.864 490.877 234.328 491.201 234.712 491.633L233.932 492.389C233.3 491.725 232.512 491.393 231.568 491.393C230.944 491.393 230.38 491.533 229.876 491.813C229.372 492.093 228.976 492.481 228.688 492.977C228.408 493.465 228.268 494.013 228.268 494.621C228.268 495.229 228.408 495.781 228.688 496.277C228.976 496.765 229.372 497.149 229.876 497.429C230.38 497.709 230.944 497.849 231.568 497.849C232.504 497.849 233.292 497.513 233.932 496.841L234.712 497.597C234.328 498.029 233.86 498.357 233.308 498.581C232.764 498.805 232.164 498.917 231.508 498.917ZM239.869 498.917C238.749 498.917 237.877 498.597 237.253 497.957C236.629 497.317 236.317 496.397 236.317 495.197V490.421H237.517V495.149C237.517 496.949 238.305 497.849 239.881 497.849C240.649 497.849 241.237 497.629 241.645 497.189C242.053 496.741 242.257 496.061 242.257 495.149V490.421H243.421V495.197C243.421 496.405 243.109 497.329 242.485 497.969C241.861 498.601 240.989 498.917 239.869 498.917ZM251.977 497.777V498.821H245.881V490.421H251.809V491.465H247.081V494.045H251.293V495.065H247.081V497.777H251.977ZM253.92 490.421H255.12V498.821H253.92V490.421ZM257.635 490.421H258.835V497.777H263.383V498.821H257.635V490.421Z" fill="black"/>
<path d="M296.569 496.721H292.105L291.181 498.821H289.945L293.749 490.421H294.937L298.753 498.821H297.493L296.569 496.721ZM296.149 495.761L294.337 491.645L292.525 495.761H296.149ZM306.505 490.421C307.593 490.421 308.449 490.681 309.073 491.201C309.697 491.721 310.009 492.437 310.009 493.349C310.009 494.261 309.697 494.977 309.073 495.497C308.449 496.017 307.593 496.277 306.505 496.277H304.429V498.821H303.229V490.421H306.505ZM306.469 495.233C307.229 495.233 307.809 495.073 308.209 494.753C308.609 494.425 308.809 493.957 308.809 493.349C308.809 492.741 308.609 492.277 308.209 491.957C307.809 491.629 307.229 491.465 306.469 491.465H304.429V495.233H306.469ZM317.388 498.821L315.576 496.241C315.352 496.257 315.176 496.265 315.048 496.265H312.972V498.821H311.772V490.421H315.048C316.136 490.421 316.992 490.681 317.616 491.201C318.24 491.721 318.552 492.437 318.552 493.349C318.552 493.997 318.392 494.549 318.072 495.005C317.752 495.461 317.296 495.793 316.704 496.001L318.696 498.821H317.388ZM315.012 495.245C315.772 495.245 316.352 495.081 316.752 494.753C317.152 494.425 317.352 493.957 317.352 493.349C317.352 492.741 317.152 492.277 316.752 491.957C316.352 491.629 315.772 491.465 315.012 491.465H312.972V495.245H315.012ZM324.282 498.917C323.434 498.917 322.67 498.733 321.99 498.365C321.31 497.989 320.774 497.473 320.382 496.817C319.998 496.161 319.806 495.429 319.806 494.621C319.806 493.813 319.998 493.081 320.382 492.425C320.774 491.769 321.31 491.257 321.99 490.889C322.67 490.513 323.434 490.325 324.282 490.325C325.122 490.325 325.882 490.513 326.562 490.889C327.242 491.257 327.774 491.769 328.158 492.425C328.542 493.073 328.734 493.805 328.734 494.621C328.734 495.437 328.542 496.173 328.158 496.829C327.774 497.477 327.242 497.989 326.562 498.365C325.882 498.733 325.122 498.917 324.282 498.917ZM324.282 497.849C324.898 497.849 325.45 497.709 325.938 497.429C326.434 497.149 326.822 496.765 327.102 496.277C327.39 495.781 327.534 495.229 327.534 494.621C327.534 494.013 327.39 493.465 327.102 492.977C326.822 492.481 326.434 492.093 325.938 491.813C325.45 491.533 324.898 491.393 324.282 491.393C323.666 491.393 323.106 491.533 322.602 491.813C322.106 492.093 321.714 492.481 321.426 492.977C321.146 493.465 321.006 494.013 321.006 494.621C321.006 495.229 321.146 495.781 321.426 496.277C321.714 496.765 322.106 497.149 322.602 497.429C323.106 497.709 323.666 497.849 324.282 497.849ZM333.845 490.421C334.933 490.421 335.789 490.681 336.413 491.201C337.037 491.721 337.349 492.437 337.349 493.349C337.349 494.261 337.037 494.977 336.413 495.497C335.789 496.017 334.933 496.277 333.845 496.277H331.769V498.821H330.569V490.421H333.845ZM333.809 495.233C334.569 495.233 335.149 495.073 335.549 494.753C335.949 494.425 336.149 493.957 336.149 493.349C336.149 492.741 335.949 492.277 335.549 491.957C335.149 491.629 334.569 491.465 333.809 491.465H331.769V495.233H333.809ZM343.021 498.917C342.173 498.917 341.409 498.733 340.729 498.365C340.049 497.989 339.513 497.473 339.121 496.817C338.737 496.161 338.545 495.429 338.545 494.621C338.545 493.813 338.737 493.081 339.121 492.425C339.513 491.769 340.049 491.257 340.729 490.889C341.409 490.513 342.173 490.325 343.021 490.325C343.861 490.325 344.621 490.513 345.301 490.889C345.981 491.257 346.513 491.769 346.897 492.425C347.281 493.073 347.473 493.805 347.473 494.621C347.473 495.437 347.281 496.173 346.897 496.829C346.513 497.477 345.981 497.989 345.301 498.365C344.621 498.733 343.861 498.917 343.021 498.917ZM343.021 497.849C343.637 497.849 344.189 497.709 344.677 497.429C345.173 497.149 345.561 496.765 345.841 496.277C346.129 495.781 346.273 495.229 346.273 494.621C346.273 494.013 346.129 493.465 345.841 492.977C345.561 492.481 345.173 492.093 344.677 491.813C344.189 491.533 343.637 491.393 343.021 491.393C342.405 491.393 341.845 491.533 341.341 491.813C340.845 492.093 340.453 492.481 340.165 492.977C339.885 493.465 339.745 494.013 339.745 494.621C339.745 495.229 339.885 495.781 340.165 496.277C340.453 496.765 340.845 497.149 341.341 497.429C341.845 497.709 342.405 497.849 343.021 497.849ZM351.755 498.917C351.123 498.917 350.511 498.821 349.919 498.629C349.335 498.429 348.875 498.173 348.539 497.861L348.983 496.925C349.303 497.213 349.711 497.449 350.207 497.633C350.711 497.809 351.227 497.897 351.755 497.897C352.451 497.897 352.971 497.781 353.315 497.549C353.659 497.309 353.831 496.993 353.831 496.601C353.831 496.313 353.735 496.081 353.543 495.905C353.359 495.721 353.127 495.581 352.847 495.485C352.575 495.389 352.187 495.281 351.683 495.161C351.051 495.009 350.539 494.857 350.147 494.705C349.763 494.553 349.431 494.321 349.151 494.009C348.879 493.689 348.743 493.261 348.743 492.725C348.743 492.277 348.859 491.873 349.091 491.513C349.331 491.153 349.691 490.865 350.171 490.649C350.651 490.433 351.247 490.325 351.959 490.325C352.455 490.325 352.943 490.389 353.423 490.517C353.903 490.645 354.315 490.829 354.659 491.069L354.263 492.029C353.911 491.805 353.535 491.637 353.135 491.525C352.735 491.405 352.343 491.345 351.959 491.345C351.279 491.345 350.767 491.469 350.423 491.717C350.087 491.965 349.919 492.285 349.919 492.677C349.919 492.965 350.015 493.201 350.207 493.385C350.399 493.561 350.635 493.701 350.915 493.805C351.203 493.901 351.591 494.005 352.079 494.117C352.711 494.269 353.219 494.421 353.603 494.573C353.987 494.725 354.315 494.957 354.587 495.269C354.867 495.581 355.007 496.001 355.007 496.529C355.007 496.969 354.887 497.373 354.647 497.741C354.407 498.101 354.043 498.389 353.555 498.605C353.067 498.813 352.467 498.917 351.755 498.917Z" fill="black"/>
<path d="M289.957 500.021H355.499V500.621H289.957V500.021Z" fill="black"/>
<path d="M34.3398 591.649L26.5946 599.569V610.682H20.5V567.761H26.5946V591.776L49.7032 567.761H56.6865L38.5298 587.05L57.9562 610.682H50.8459L34.3398 591.649Z" fill="#FF6060"/>
<path d="M102.396 607.233L104.808 602.634C107.602 604.55 111.919 605.956 116.109 605.956C121.568 605.956 123.727 604.295 123.727 601.485C123.727 594.203 103.285 600.463 103.285 587.561C103.285 581.685 108.49 577.853 116.743 577.853C120.933 577.853 125.758 579.002 128.552 580.791L126.012 585.389C123.092 583.473 119.918 582.835 116.743 582.835C111.665 582.835 109.125 584.751 109.125 587.305C109.125 594.97 129.567 588.711 129.567 601.357C129.567 607.233 124.235 610.937 115.601 610.937C110.395 611.065 105.062 609.404 102.396 607.233Z" fill="#FF6060"/>
<path d="M165.5 591.01V610.682H159.913V606.339C158.009 609.277 154.327 610.937 149.248 610.937C141.884 610.937 137.313 606.977 137.313 601.357C137.313 596.12 140.614 591.904 150.264 591.904H159.533V590.754C159.533 585.773 156.612 582.962 150.899 582.962C147.089 582.962 143.153 584.367 140.614 586.411L138.202 581.94C141.503 579.258 146.328 577.725 151.533 577.725C160.548 577.853 165.5 582.196 165.5 591.01ZM159.66 600.718V596.12H150.645C144.804 596.12 143.153 598.419 143.153 601.101C143.153 604.295 145.82 606.339 150.264 606.339C154.708 606.466 158.263 604.55 159.66 600.718Z" fill="#FF6060"/>
<path d="M83.6042 602.123V610.81L87.2864 608.638V599.952L83.6042 602.123Z" fill="#FF6060"/>
<path d="M93.7618 591.521L78.6524 582.707L70.2724 577.853L62.0193 592.287L62.1463 605.828L77.1287 614.642L78.6524 613.748V600.974L85.3818 589.094L92.2382 593.054V605.828L93.7618 604.934V591.521Z" fill="#FF6060"/>
<path d="M215.936 593.602H211.472L210.548 595.702H209.312L213.116 587.302H214.304L218.12 595.702H216.86L215.936 593.602ZM215.516 592.642L213.704 588.526L211.892 592.642H215.516ZM223.012 595.798C222.172 595.798 221.412 595.614 220.732 595.246C220.06 594.87 219.532 594.358 219.148 593.71C218.764 593.054 218.572 592.318 218.572 591.502C218.572 590.686 218.764 589.954 219.148 589.306C219.532 588.65 220.064 588.138 220.744 587.77C221.424 587.394 222.184 587.206 223.024 587.206C223.68 587.206 224.28 587.318 224.824 587.542C225.368 587.758 225.832 588.082 226.216 588.514L225.436 589.27C224.804 588.606 224.016 588.274 223.072 588.274C222.448 588.274 221.884 588.414 221.38 588.694C220.876 588.974 220.48 589.362 220.192 589.858C219.912 590.346 219.772 590.894 219.772 591.502C219.772 592.11 219.912 592.662 220.192 593.158C220.48 593.646 220.876 594.03 221.38 594.31C221.884 594.59 222.448 594.73 223.072 594.73C224.008 594.73 224.796 594.394 225.436 593.722L226.216 594.478C225.832 594.91 225.364 595.238 224.812 595.462C224.268 595.686 223.668 595.798 223.012 595.798ZM231.508 595.798C230.668 595.798 229.908 595.614 229.228 595.246C228.556 594.87 228.028 594.358 227.644 593.71C227.26 593.054 227.068 592.318 227.068 591.502C227.068 590.686 227.26 589.954 227.644 589.306C228.028 588.65 228.56 588.138 229.24 587.77C229.92 587.394 230.68 587.206 231.52 587.206C232.176 587.206 232.776 587.318 233.32 587.542C233.864 587.758 234.328 588.082 234.712 588.514L233.932 589.27C233.3 588.606 232.512 588.274 231.568 588.274C230.944 588.274 230.38 588.414 229.876 588.694C229.372 588.974 228.976 589.362 228.688 589.858C228.408 590.346 228.268 590.894 228.268 591.502C228.268 592.11 228.408 592.662 228.688 593.158C228.976 593.646 229.372 594.03 229.876 594.31C230.38 594.59 230.944 594.73 231.568 594.73C232.504 594.73 233.292 594.394 233.932 593.722L234.712 594.478C234.328 594.91 233.86 595.238 233.308 595.462C232.764 595.686 232.164 595.798 231.508 595.798ZM239.869 595.798C238.749 595.798 237.877 595.478 237.253 594.838C236.629 594.198 236.317 593.278 236.317 592.078V587.302H237.517V592.03C237.517 593.83 238.305 594.73 239.881 594.73C240.649 594.73 241.237 594.51 241.645 594.07C242.053 593.622 242.257 592.942 242.257 592.03V587.302H243.421V592.078C243.421 593.286 243.109 594.21 242.485 594.85C241.861 595.482 240.989 595.798 239.869 595.798ZM251.977 594.658V595.702H245.881V587.302H251.809V588.346H247.081V590.926H251.293V591.946H247.081V594.658H251.977ZM253.92 587.302H255.12V595.702H253.92V587.302ZM257.635 587.302H258.835V594.658H263.383V595.702H257.635V587.302Z" fill="black"/>
<path d="M296.569 593.602H292.105L291.181 595.702H289.945L293.749 587.302H294.937L298.753 595.702H297.493L296.569 593.602ZM296.149 592.642L294.337 588.526L292.525 592.642H296.149ZM306.505 587.302C307.593 587.302 308.449 587.562 309.073 588.082C309.697 588.602 310.009 589.318 310.009 590.23C310.009 591.142 309.697 591.858 309.073 592.378C308.449 592.898 307.593 593.158 306.505 593.158H304.429V595.702H303.229V587.302H306.505ZM306.469 592.114C307.229 592.114 307.809 591.954 308.209 591.634C308.609 591.306 308.809 590.838 308.809 590.23C308.809 589.622 308.609 589.158 308.209 588.838C307.809 588.51 307.229 588.346 306.469 588.346H304.429V592.114H306.469ZM317.388 595.702L315.576 593.122C315.352 593.138 315.176 593.146 315.048 593.146H312.972V595.702H311.772V587.302H315.048C316.136 587.302 316.992 587.562 317.616 588.082C318.24 588.602 318.552 589.318 318.552 590.23C318.552 590.878 318.392 591.43 318.072 591.886C317.752 592.342 317.296 592.674 316.704 592.882L318.696 595.702H317.388ZM315.012 592.126C315.772 592.126 316.352 591.962 316.752 591.634C317.152 591.306 317.352 590.838 317.352 590.23C317.352 589.622 317.152 589.158 316.752 588.838C316.352 588.51 315.772 588.346 315.012 588.346H312.972V592.126H315.012ZM324.282 595.798C323.434 595.798 322.67 595.614 321.99 595.246C321.31 594.87 320.774 594.354 320.382 593.698C319.998 593.042 319.806 592.31 319.806 591.502C319.806 590.694 319.998 589.962 320.382 589.306C320.774 588.65 321.31 588.138 321.99 587.77C322.67 587.394 323.434 587.206 324.282 587.206C325.122 587.206 325.882 587.394 326.562 587.77C327.242 588.138 327.774 588.65 328.158 589.306C328.542 589.954 328.734 590.686 328.734 591.502C328.734 592.318 328.542 593.054 328.158 593.71C327.774 594.358 327.242 594.87 326.562 595.246C325.882 595.614 325.122 595.798 324.282 595.798ZM324.282 594.73C324.898 594.73 325.45 594.59 325.938 594.31C326.434 594.03 326.822 593.646 327.102 593.158C327.39 592.662 327.534 592.11 327.534 591.502C327.534 590.894 327.39 590.346 327.102 589.858C326.822 589.362 326.434 588.974 325.938 588.694C325.45 588.414 324.898 588.274 324.282 588.274C323.666 588.274 323.106 588.414 322.602 588.694C322.106 588.974 321.714 589.362 321.426 589.858C321.146 590.346 321.006 590.894 321.006 591.502C321.006 592.11 321.146 592.662 321.426 593.158C321.714 593.646 322.106 594.03 322.602 594.31C323.106 594.59 323.666 594.73 324.282 594.73ZM333.845 587.302C334.933 587.302 335.789 587.562 336.413 588.082C337.037 588.602 337.349 589.318 337.349 590.23C337.349 591.142 337.037 591.858 336.413 592.378C335.789 592.898 334.933 593.158 333.845 593.158H331.769V595.702H330.569V587.302H333.845ZM333.809 592.114C334.569 592.114 335.149 591.954 335.549 591.634C335.949 591.306 336.149 590.838 336.149 590.23C336.149 589.622 335.949 589.158 335.549 588.838C335.149 588.51 334.569 588.346 333.809 588.346H331.769V592.114H333.809ZM343.021 595.798C342.173 595.798 341.409 595.614 340.729 595.246C340.049 594.87 339.513 594.354 339.121 593.698C338.737 593.042 338.545 592.31 338.545 591.502C338.545 590.694 338.737 589.962 339.121 589.306C339.513 588.65 340.049 588.138 340.729 587.77C341.409 587.394 342.173 587.206 343.021 587.206C343.861 587.206 344.621 587.394 345.301 587.77C345.981 588.138 346.513 588.65 346.897 589.306C347.281 589.954 347.473 590.686 347.473 591.502C347.473 592.318 347.281 593.054 346.897 593.71C346.513 594.358 345.981 594.87 345.301 595.246C344.621 595.614 343.861 595.798 343.021 595.798ZM343.021 594.73C343.637 594.73 344.189 594.59 344.677 594.31C345.173 594.03 345.561 593.646 345.841 593.158C346.129 592.662 346.273 592.11 346.273 591.502C346.273 590.894 346.129 590.346 345.841 589.858C345.561 589.362 345.173 588.974 344.677 588.694C344.189 588.414 343.637 588.274 343.021 588.274C342.405 588.274 341.845 588.414 341.341 588.694C340.845 588.974 340.453 589.362 340.165 589.858C339.885 590.346 339.745 590.894 339.745 591.502C339.745 592.11 339.885 592.662 340.165 593.158C340.453 593.646 340.845 594.03 341.341 594.31C341.845 594.59 342.405 594.73 343.021 594.73ZM351.755 595.798C351.123 595.798 350.511 595.702 349.919 595.51C349.335 595.31 348.875 595.054 348.539 594.742L348.983 593.806C349.303 594.094 349.711 594.33 350.207 594.514C350.711 594.69 351.227 594.778 351.755 594.778C352.451 594.778 352.971 594.662 353.315 594.43C353.659 594.19 353.831 593.874 353.831 593.482C353.831 593.194 353.735 592.962 353.543 592.786C353.359 592.602 353.127 592.462 352.847 592.366C352.575 592.27 352.187 592.162 351.683 592.042C351.051 591.89 350.539 591.738 350.147 591.586C349.763 591.434 349.431 591.202 349.151 590.89C348.879 590.57 348.743 590.142 348.743 589.606C348.743 589.158 348.859 588.754 349.091 588.394C349.331 588.034 349.691 587.746 350.171 587.53C350.651 587.314 351.247 587.206 351.959 587.206C352.455 587.206 352.943 587.27 353.423 587.398C353.903 587.526 354.315 587.71 354.659 587.95L354.263 588.91C353.911 588.686 353.535 588.518 353.135 588.406C352.735 588.286 352.343 588.226 351.959 588.226C351.279 588.226 350.767 588.35 350.423 588.598C350.087 588.846 349.919 589.166 349.919 589.558C349.919 589.846 350.015 590.082 350.207 590.266C350.399 590.442 350.635 590.582 350.915 590.686C351.203 590.782 351.591 590.886 352.079 590.998C352.711 591.15 353.219 591.302 353.603 591.454C353.987 591.606 354.315 591.838 354.587 592.15C354.867 592.462 355.007 592.882 355.007 593.41C355.007 593.85 354.887 594.254 354.647 594.622C354.407 594.982 354.043 595.27 353.555 595.486C353.067 595.694 352.467 595.798 351.755 595.798Z" fill="black"/>
</svg>
